{
	"patcher" : 	{
		"fileversion" : 1,
		"appversion" : 		{
			"major" : 8,
			"minor" : 6,
			"revision" : 4,
			"architecture" : "x64",
			"modernui" : 1
		}
,
		"classnamespace" : "box",
		"rect" : [ 561.0, 316.0, 726.0, 538.0 ],
		"bglocked" : 0,
		"openinpresentation" : 0,
		"default_fontsize" : 12.0,
		"default_fontface" : 0,
		"default_fontname" : "Arial",
		"gridonopen" : 1,
		"gridsize" : [ 15.0, 15.0 ],
		"gridsnaponopen" : 1,
		"objectsnaponopen" : 1,
		"statusbarvisible" : 2,
		"toolbarvisible" : 1,
		"lefttoolbarpinned" : 0,
		"toptoolbarpinned" : 0,
		"righttoolbarpinned" : 0,
		"bottomtoolbarpinned" : 0,
		"toolbars_unpinned_last_save" : 0,
		"tallnewobj" : 0,
		"boxanimatetime" : 200,
		"enablehscroll" : 1,
		"enablevscroll" : 1,
		"devicewidth" : 0.0,
		"description" : "",
		"digest" : "",
		"tags" : "",
		"style" : "",
		"subpatcher_template" : "",
		"assistshowspatchername" : 0,
		"boxes" : [ 			{
				"box" : 				{
					"id" : "obj-39",
					"maxclass" : "newobj",
					"numinlets" : 0,
					"numoutlets" : 1,
					"outlettype" : [ "" ],
					"patching_rect" : [ 501.0, 34.374998688697815, 31.0, 22.0 ],
					"text" : "r col"
				}

			}
, 			{
				"box" : 				{
					"id" : "obj-38",
					"maxclass" : "newobj",
					"numinlets" : 1,
					"numoutlets" : 0,
					"patching_rect" : [ 125.0, 557.291645407676697, 33.0, 22.0 ],
					"text" : "s col"
				}

			}
, 			{
				"box" : 				{
					"id" : "obj-37",
					"maxclass" : "message",
					"numinlets" : 2,
					"numoutlets" : 1,
					"outlettype" : [ "" ],
					"patching_rect" : [ 578.0, 220.833324909210205, 302.083321809768677, 22.0 ],
					"presentation_linecount" : 3,
					"text" : "textcolor 0. 1. 0. 1., bgfillcolor 0.329 0.333 0.329 1.",
					"textcolor" : [ 1.0, 1.0, 1.0, 1.0 ]
				}

			}
, 			{
				"box" : 				{
					"id" : "obj-32",
					"maxclass" : "newobj",
					"numinlets" : 2,
					"numoutlets" : 1,
					"outlettype" : [ "bang" ],
					"patching_rect" : [ 578.0, 100.0, 48.0, 22.0 ],
					"text" : "del 200"
				}

			}
, 			{
				"box" : 				{
					"id" : "obj-29",
					"maxclass" : "live.button",
					"numinlets" : 1,
					"numoutlets" : 1,
					"outlettype" : [ "" ],
					"parameter_enable" : 1,
					"patching_rect" : [ 125.0, 467.0, 69.0, 69.0 ],
					"saved_attribute_attributes" : 					{
						"valueof" : 						{
							"parameter_enum" : [ "off", "on" ],
							"parameter_longname" : "live.button",
							"parameter_mmax" : 1,
							"parameter_modmode" : 0,
							"parameter_shortname" : "live.button",
							"parameter_type" : 2
						}

					}
,
					"varname" : "live.button"
				}

			}
, 			{
				"box" : 				{
					"id" : "obj-25",
					"maxclass" : "newobj",
					"numinlets" : 2,
					"numoutlets" : 1,
					"outlettype" : [ "" ],
					"patching_rect" : [ 125.0, 427.0, 127.0, 22.0 ],
					"text" : "if $i1 == $i2 then bang"
				}

			}
, 			{
				"box" : 				{
					"id" : "obj-22",
					"maxclass" : "kslider",
					"numinlets" : 2,
					"numoutlets" : 2,
					"outlettype" : [ "int", "int" ],
					"parameter_enable" : 0,
					"patching_rect" : [ 125.0, 157.0, 336.0, 53.0 ]
				}

			}
, 			{
				"box" : 				{
					"id" : "obj-9",
					"maxclass" : "message",
					"numinlets" : 2,
					"numoutlets" : 1,
					"outlettype" : [ "" ],
					"patching_rect" : [ 501.0, 188.0, 225.0, 22.0 ],
					"text" : "textcolor 1. 0. 0. 1., bgfillcolor 1. 1. 1. 0.7"
				}

			}
, 			{
				"box" : 				{
					"align" : 1,
					"arrow" : 0,
					"bgcolor" : [ 0.329, 0.333, 0.329, 1.0 ],
					"bgfillcolor_angle" : 270.0,
					"bgfillcolor_autogradient" : 0.0,
					"bgfillcolor_color" : [ 0.329, 0.333, 0.329, 1.0 ],
					"bgfillcolor_color1" : [ 0.376470588235294, 0.384313725490196, 0.4, 1.0 ],
					"bgfillcolor_color2" : [ 0.290196078431373, 0.309803921568627, 0.301960784313725, 1.0 ],
					"bgfillcolor_proportion" : 0.39,
					"bgfillcolor_type" : "color",
					"color" : [ 0.368627450980392, 0.368627450980392, 0.368627450980392, 1.0 ],
					"fontsize" : 30.0,
					"id" : "obj-1",
					"items" : [ "C-2", ",", "C#-2", ",", "D-2", ",", "D#-2", ",", "E-2", ",", "F-2", ",", "F#-2", ",", "G-2", ",", "G#-2", ",", "A-2", ",", "A#-2", ",", "B-2", ",", "C-1", ",", "C#-1", ",", "D-1", ",", "D#-1", ",", "E-1", ",", "F-1", ",", "F#-1", ",", "G-1", ",", "G#-1", ",", "A-1", ",", "A#-1", ",", "B-1", ",", "C0", ",", "C#0", ",", "D0", ",", "D#0", ",", "E0", ",", "F0", ",", "F#0", ",", "G0", ",", "G#0", ",", "A0", ",", "A#0", ",", "B0", ",", "C1", ",", "C#1", ",", "D1", ",", "D#1", ",", "E1", ",", "F1", ",", "F#1", ",", "G1", ",", "G#1", ",", "A1", ",", "A#1", ",", "B1", ",", "C2", ",", "C#2", ",", "D2", ",", "D#2", ",", "E2", ",", "F2", ",", "F#2", ",", "G2", ",", "G#2", ",", "A2", ",", "A#2", ",", "B2", ",", "C3", ",", "C#3", ",", "D3", ",", "D#3", ",", "E3", ",", "F3", ",", "F#3", ",", "G3", ",", "G#3", ",", "A3", ",", "A#3", ",", "B3", ",", "C4", ",", "C#4", ",", "D4", ",", "D#4", ",", "E4", ",", "F4", ",", "F#4", ",", "G4", ",", "G#4", ",", "A4", ",", "A#4", ",", "B4", ",", "C5", ",", "C#5", ",", "D5", ",", "D#5", ",", "E5", ",", "F5", ",", "F#5", ",", "G5", ",", "G#5", ",", "A5", ",", "A#5", ",", "B5", ",", "C6", ",", "C#6", ",", "D6", ",", "D#6", ",", "E6", ",", "F6", ",", "F#6", ",", "G6", ",", "G#6", ",", "A6", ",", "A#6", ",", "B6", ",", "C7", ",", "C#7", ",", "D7", ",", "D#7", ",", "E7", ",", "F7", ",", "F#7", ",", "G7", ",", "G#7", ",", "A7", ",", "A#7", ",", "B7", ",", "C8", ",", "C#8", ",", "D8", ",", "D#8", ",", "E8", ",", "F8", ",", "F#8" ],
					"maxclass" : "umenu",
					"menumode" : 1,
					"numinlets" : 1,
					"numoutlets" : 3,
					"outlettype" : [ "int", "", "" ],
					"parameter_enable" : 0,
					"patching_rect" : [ 501.0, 267.708323121070862, 96.0, 43.0 ],
					"textcolor" : [ 0.0, 1.0, 0.0, 1.0 ],
					"textjustification" : 1
				}

			}
 ],
		"lines" : [ 			{
				"patchline" : 				{
					"destination" : [ "obj-25", 1 ],
					"midpoints" : [ 510.5, 414.0, 242.5, 414.0 ],
					"source" : [ "obj-1", 0 ]
				}

			}
, 			{
				"patchline" : 				{
					"destination" : [ "obj-25", 0 ],
					"midpoints" : [ 134.5, 213.0, 134.5, 213.0 ],
					"source" : [ "obj-22", 0 ]
				}

			}
, 			{
				"patchline" : 				{
					"destination" : [ "obj-29", 0 ],
					"midpoints" : [ 134.5, 450.0, 134.5, 450.0 ],
					"source" : [ "obj-25", 0 ]
				}

			}
, 			{
				"patchline" : 				{
					"destination" : [ "obj-38", 0 ],
					"midpoints" : [ 134.5, 537.0, 134.5, 537.0 ],
					"source" : [ "obj-29", 0 ]
				}

			}
, 			{
				"patchline" : 				{
					"destination" : [ "obj-37", 0 ],
					"midpoints" : [ 587.5, 174.0, 486.0, 174.0, 486.0, 222.0, 573.0, 222.0, 573.0, 216.0, 587.5, 216.0 ],
					"source" : [ "obj-32", 0 ]
				}

			}
, 			{
				"patchline" : 				{
					"destination" : [ "obj-1", 0 ],
					"midpoints" : [ 587.5, 252.0, 510.5, 252.0 ],
					"source" : [ "obj-37", 0 ]
				}

			}
, 			{
				"patchline" : 				{
					"destination" : [ "obj-32", 0 ],
					"midpoints" : [ 510.5, 87.0, 587.5, 87.0 ],
					"order" : 0,
					"source" : [ "obj-39", 0 ]
				}

			}
, 			{
				"patchline" : 				{
					"destination" : [ "obj-9", 0 ],
					"midpoints" : [ 510.5, 57.0, 510.5, 57.0 ],
					"order" : 1,
					"source" : [ "obj-39", 0 ]
				}

			}
, 			{
				"patchline" : 				{
					"destination" : [ "obj-1", 0 ],
					"midpoints" : [ 510.5, 213.0, 510.5, 213.0 ],
					"source" : [ "obj-9", 0 ]
				}

			}
 ],
		"parameters" : 		{
			"obj-29" : [ "live.button", "live.button", 0 ],
			"parameterbanks" : 			{
				"0" : 				{
					"index" : 0,
					"name" : "",
					"parameters" : [ "-", "-", "-", "-", "-", "-", "-", "-" ]
				}

			}
,
			"inherited_shortname" : 1
		}
,
		"dependency_cache" : [  ],
		"autosave" : 0
	}

}
